<?xml version="1.0" encoding="UTF-8" standalone="no"?>
<!-- Created with Inkscape (http://www.inkscape.org/) -->

<svg
   version="1.1"
   id="svg1"
   width="1200"
   height="925.20001"
   viewBox="0 0 1200 925.20001"
   sodipodi:docname="WCP_logo_white.eps"
   xmlns:inkscape="http://www.inkscape.org/namespaces/inkscape"
   xmlns:sodipodi="http://sodipodi.sourceforge.net/DTD/sodipodi-0.dtd"
   xmlns="http://www.w3.org/2000/svg"
   xmlns:svg="http://www.w3.org/2000/svg">
  <defs
     id="defs1" />
  <sodipodi:namedview
     id="namedview1"
     pagecolor="#ffffff"
     bordercolor="#000000"
     borderopacity="0.25"
     inkscape:showpageshadow="2"
     inkscape:pageopacity="0.0"
     inkscape:pagecheckerboard="0"
     inkscape:deskcolor="#d1d1d1">
    <inkscape:page
       x="0"
       y="0"
       inkscape:label="1"
       id="page1"
       width="1200"
       height="925.20001"
       margin="0"
       bleed="0" />
  </sodipodi:namedview>
  <g
     id="g1"
     inkscape:groupmode="layer"
     inkscape:label="1">
    <g
       id="group-R5">

      <path
         id="path3"
         d="M 2621.74,4473.34 2053.73,5690.5 3711.4,4473.34 4548.75,6015.09 5403.84,4473.34 7015.14,5690.5 6458.72,4473.34 5728.42,5516.62 4548.75,4473.34 3328.86,5516.62 Z"
         style="fill:none;stroke:#ffffff;stroke-width:40;stroke-linecap:round;stroke-linejoin:round;stroke-miterlimit:10;stroke-dasharray:none;stroke-opacity:1"
         transform="matrix(0.13333333,0,0,-0.13333333,0,925.2)" />
      <path
         id="path4"
         d="m 7211.7,5655.83 c -66.53,0 -139.06,17.27 -191.08,82.55 -90.37,113.38 -118.67,353.85 101.25,446.21 21.35,1.98 41.55,2.96 60.62,2.96 155.36,0 237.42,-65.04 284.14,-186.8 0,0 41.11,-299.38 -162.42,-335.71 -27.06,-4.83 -59.02,-9.21 -92.51,-9.21"
         style="fill:none;stroke:#ffffff;stroke-width:40;stroke-linecap:round;stroke-linejoin:round;stroke-miterlimit:10;stroke-dasharray:none;stroke-opacity:1"
         transform="matrix(0.13333333,0,0,-0.13333333,0,925.2)" />
      <path
         id="path5"
         d="m 5748.02,5543.98 c -66.54,0 -139.06,17.27 -191.09,82.55 -90.36,113.38 -118.66,353.85 101.24,446.21 21.37,1.97 41.56,2.95 60.63,2.95 155.37,0 237.43,-65.03 284.15,-186.79 0,0 41.11,-299.38 -162.42,-335.71 -27.06,-4.83 -59.03,-9.21 -92.51,-9.21"
         style="fill:none;stroke:#ffffff;stroke-width:40;stroke-linecap:round;stroke-linejoin:round;stroke-miterlimit:10;stroke-dasharray:none;stroke-opacity:1"
         transform="matrix(0.13333333,0,0,-0.13333333,0,925.2)" />
      <path
         id="path6"
         d="m 4555.69,6054.02 c -66.52,0 -139.06,17.27 -191.08,82.55 -90.36,113.38 -118.66,353.85 101.24,446.21 21.37,1.97 41.56,2.95 60.63,2.95 155.37,0 237.43,-65.03 284.15,-186.79 0,0 41.11,-299.38 -162.43,-335.72 -27.05,-4.83 -59.02,-9.2 -92.51,-9.2"
         style="fill:none;stroke:#ffffff;stroke-width:40;stroke-linecap:round;stroke-linejoin:round;stroke-miterlimit:10;stroke-dasharray:none;stroke-opacity:1"
         transform="matrix(0.13333333,0,0,-0.13333333,0,925.2)" />
      <path
         id="path7"
         d="m 3319.73,5543.98 c -66.53,0 -139.06,17.27 -191.08,82.55 -90.36,113.38 -118.66,353.85 101.24,446.21 21.37,1.97 41.56,2.95 60.63,2.95 155.36,0 237.42,-65.03 284.14,-186.79 0,0 41.11,-299.38 -162.42,-335.71 -27.05,-4.83 -59.02,-9.21 -92.51,-9.21"
         style="fill:none;stroke:#ffffff;stroke-width:40;stroke-linecap:round;stroke-linejoin:round;stroke-miterlimit:10;stroke-dasharray:none;stroke-opacity:1"
         transform="matrix(0.13333333,0,0,-0.13333333,0,925.2)" />
      <path
         id="path8"
         d="m 1936.97,5698.27 c -66.53,0 -139.06,17.27 -191.09,82.56 -90.35,113.38 -118.65,353.85 101.25,446.21 21.37,1.97 41.55,2.95 60.62,2.95 155.37,0 237.43,-65.03 284.15,-186.79 0,0 41.11,-299.38 -162.43,-335.72 -27.05,-4.83 -59.02,-9.21 -92.5,-9.21"
         style="fill:none;stroke:#ffffff;stroke-width:40;stroke-linecap:round;stroke-linejoin:round;stroke-miterlimit:10;stroke-dasharray:none;stroke-opacity:1"
         transform="matrix(0.13333333,0,0,-0.13333333,0,925.2)" />
      <path
         id="path9"
         d="m 6482.98,421.68 -3820.91,7.742"
         style="fill:none;stroke:#ffffff;stroke-width:30;stroke-linecap:round;stroke-linejoin:round;stroke-miterlimit:10;stroke-dasharray:none;stroke-opacity:1"
         transform="matrix(0.13333333,0,0,-0.13333333,0,925.2)" />
      <path
         id="path10"
         d="m 6464.61,3714.42 -3820.45,7.74"
         style="fill:none;stroke:#ffffff;stroke-width:30;stroke-linecap:round;stroke-linejoin:round;stroke-miterlimit:10;stroke-dasharray:none;stroke-opacity:1"
         transform="matrix(0.13333333,0,0,-0.13333333,0,925.2)" />
      <path
         id="path11"
         d="m 1359.75,2515.81 -106.35,-0.56 -48.92,184.55 c -16.9,65.29 -25.94,128.88 -27.79,148.06 -3.39,-20.06 -14.38,-85.5 -28.01,-145.73 l -42.61,-187.65 -108.957,-0.56 -127.09,463.96 101.993,0.53 48.014,-181.05 c 18.68,-69.65 27.74,-134.99 29.62,-162.01 3.35,24.44 12.59,92.48 29.69,158.82 l 46.97,185.06 104.61,0.53 50.76,-205.45 c 11.57,-45.27 21.49,-107.99 25.1,-131.52 1.65,17.46 16.03,102.09 29.68,157.96 l 44.39,179.8 100.25,0.53 -121.35,-465.27"
         style="fill:#ffffff;fill-opacity:1;fill-rule:nonzero;stroke:none"
         transform="matrix(0.13333333,0,0,-0.13333333,0,925.2)" />
      <path
         id="path12"
         d="m 1962.68,2895.54 c -5.1,-26.18 -47.98,-161.51 -55.68,-189.46 l 111.57,0.6 c -8.87,29.59 -51.4,162.74 -55.89,188.86 z m 118.76,-373.37 -40.69,110.52 -157.77,-0.82 -38.65,-110.93 -100.25,-0.51 169.31,464.65 104.6,0.54 167.18,-462.9 -103.73,-0.55"
         style="fill:#ffffff;fill-opacity:1;fill-rule:nonzero;stroke:none"
         transform="matrix(0.13333333,0,0,-0.13333333,0,925.2)" />
      <path
         id="path13"
         d="m 2605,2913.72 0.67,-127.27 41.83,0.22 c 40.11,0.21 63.62,4.68 79.25,16.98 13.03,10.52 19.91,26.25 19.8,48.05 -0.14,27.9 -13.32,47.87 -39.52,55.57 -14.84,4.28 -32.29,6.81 -55.83,6.68 z m 158.08,-387.97 -45.72,73.86 c -46.6,75.6 -62.38,92.95 -78.15,106.81 -7.88,6.94 -20.98,11.22 -33.18,11.15 l 1.01,-192.64 -95.01,-0.49 -2.42,462 156.03,0.81 c 61.02,0.32 103.78,-7.3 132.67,-31.55 31.52,-25.99 48.28,-61.64 48.49,-102.62 0.37,-71.48 -48.18,-123.16 -113.53,-129.6 6.13,-4.32 14.01,-12.12 21.04,-21.68 14.92,-19.1 39.49,-51.25 60.58,-82.52 l 64.12,-92.93 -115.93,-0.6"
         style="fill:#ffffff;fill-opacity:1;fill-rule:nonzero;stroke:none"
         transform="matrix(0.13333333,0,0,-0.13333333,0,925.2)" />
      <path
         id="path14"
         d="m 3640.85,2530.33 -21.4,258.8 c -2.78,31.36 -4.72,71.46 -5.7,89.75 -3.4,-15.71 -14.52,-55.87 -23.95,-87.29 l -80.58,-261.95 -82.81,-0.44 -78.93,256.75 c -8.86,28.73 -19.57,75.76 -24.04,96.64 0.1,-17.43 -2.28,-62.77 -4.73,-96.78 l -17.83,-257.26 -95.88,-0.5 46.4,462.26 124.65,0.65 71.85,-236.72 c 9.76,-32.22 18.69,-72.27 22.27,-89.68 1.65,16.58 11.89,60.22 21.31,90.77 l 70.25,236.61 125.52,0.64 48.61,-461.75 -95.01,-0.5"
         style="fill:#ffffff;fill-opacity:1;fill-rule:nonzero;stroke:none"
         transform="matrix(0.13333333,0,0,-0.13333333,0,925.2)" />
      <path
         id="path15"
         d="m 4108.04,2532.76 -2.41,462 99.37,0.53 2.41,-462 -99.37,-0.53"
         style="fill:#ffffff;fill-opacity:1;fill-rule:nonzero;stroke:none"
         transform="matrix(0.13333333,0,0,-0.13333333,0,925.2)" />
      <path
         id="path16"
         d="m 4858.54,2536.69 -113.56,212.98 c -24.64,45.21 -50.2,99.12 -57.27,118.27 1.9,-28.77 3.04,-82.8 4.17,-129.89 l 4.54,-202.21 -93.28,-0.48 -2.41,462.01 107.23,0.56 117.02,-208.62 c 24.64,-43.45 41.41,-83.45 50.23,-106.95 -1.85,24.39 -7.36,74.92 -7.58,120.25 l -2.78,196.14 90.66,0.46 2.41,-462.02 -99.38,-0.5"
         style="fill:#ffffff;fill-opacity:1;fill-rule:nonzero;stroke:none"
         transform="matrix(0.13333333,0,0,-0.13333333,0,925.2)" />
      <path
         id="path17"
         d="m 5605.48,2558.01 c -33.91,-17.61 -76.56,-28.29 -126.26,-28.55 -58.41,-0.3 -116.88,13.34 -171.06,40.1 l 34.48,74.26 c 48.07,-23.3 89.98,-36.14 141.4,-35.87 27.02,0.13 46.17,4.61 62.71,12.53 20,9.69 31.24,25.43 31.13,46.36 -0.16,29.64 -22.04,48.69 -73.54,61.52 l -61.98,15.36 c -46.27,11.1 -78.62,32.72 -97.09,61.38 -13.18,20.85 -19.39,42.62 -19.54,67.9 -0.43,82.82 73.37,142.48 179.72,143.03 61.01,0.31 129.11,-17.63 171.1,-46.17 l -44.97,-67.37 c -41.97,23.33 -83.87,35.31 -123.09,35.11 -46.2,-0.25 -77.48,-20.45 -77.33,-52.71 0.14,-26.14 15.9,-40.9 63.05,-51.97 l 61.96,-14.5 c 38.4,-9.38 73.37,-25.78 95.28,-47.45 21.91,-21.69 34.27,-51.26 34.44,-85.25 0.28,-54.06 -29.12,-101.29 -80.41,-127.71"
         style="fill:#ffffff;fill-opacity:1;fill-rule:nonzero;stroke:none"
         transform="matrix(0.13333333,0,0,-0.13333333,0,925.2)" />
      <path
         id="path18"
         d="m 6312.49,2544.26 -164.27,240.63 1.27,-241.48 -98.5,-0.5 -2.42,462.01 98.51,0.51 1.1,-210.08 154.06,210.9 120.28,0.61 -170.61,-214.47 187.85,-247.46 -127.27,-0.67"
         style="fill:#ffffff;fill-opacity:1;fill-rule:nonzero;stroke:none"
         transform="matrix(0.13333333,0,0,-0.13333333,0,925.2)" />
      <path
         id="path19"
         d="m 6770.11,2546.67 -2.41,462 99.37,0.52 2.41,-462.02 -99.37,-0.5"
         style="fill:#ffffff;fill-opacity:1;fill-rule:nonzero;stroke:none"
         transform="matrix(0.13333333,0,0,-0.13333333,0,925.2)" />
      <path
         id="path20"
         d="m 7265.21,2549.24 -2.41,462.02 291.15,1.51 -13.54,-75.91 -181.31,-0.95 0.54,-106.35 151.66,0.79 0.4,-76.7 -150.79,-0.77 0.65,-122.92 200.49,1.03 0.41,-80.19 -297.25,-1.56"
         style="fill:#ffffff;fill-opacity:1;fill-rule:nonzero;stroke:none"
         transform="matrix(0.13333333,0,0,-0.13333333,0,925.2)" />
      <path
         id="path21"
         d="m 2084.24,1805.39 c -64.5,-0.33 -117.77,15.94 -158.06,54.09 -45.56,43.36 -70.28,102.5 -70.66,174.86 -0.31,59.27 12.52,107.28 37.59,147.49 39.77,63.87 111.04,102.58 191.24,103 48.81,0.26 101.19,-14.29 130.08,-35.93 l -45,-63 c -26.24,16.43 -54.19,25 -82.96,24.86 -40.09,-0.22 -76.6,-20.45 -97.36,-50.21 -18.17,-25.37 -25.83,-61.14 -25.57,-111.71 0.34,-65.38 7.5,-100.2 31.17,-127.96 23.69,-27.79 55.15,-42.44 96.98,-42.22 33.14,0.17 60.11,9.03 89.65,28.35 l 45.63,-57.29 c -37.33,-28.95 -84.32,-44.02 -142.73,-44.33"
         style="fill:#ffffff;fill-opacity:1;fill-rule:nonzero;stroke:none"
         transform="matrix(0.13333333,0,0,-0.13333333,0,925.2)" />
      <path
         id="path22"
         d="m 2558.37,1815.71 -2.41,461.99 291.16,1.52 -13.56,-75.9 -181.31,-0.94 0.55,-106.34 151.68,0.78 0.4,-76.7 -150.82,-0.79 0.65,-122.92 200.5,1.06 0.42,-80.22 -297.26,-1.54"
         style="fill:#ffffff;fill-opacity:1;fill-rule:nonzero;stroke:none"
         transform="matrix(0.13333333,0,0,-0.13333333,0,925.2)" />
      <path
         id="path23"
         d="m 3484.1,1820.55 -113.57,212.98 c -24.64,45.2 -50.2,99.12 -57.27,118.25 1.89,-28.76 3.04,-82.8 4.17,-129.86 l 4.53,-202.22 -93.27,-0.49 -2.41,461.99 107.23,0.57 117.03,-208.59 c 24.63,-43.47 41.4,-83.47 50.24,-106.97 -1.87,24.4 -7.37,74.94 -7.6,120.27 l -2.76,196.11 90.65,0.46 2.41,-461.99 -99.38,-0.51"
         style="fill:#ffffff;fill-opacity:1;fill-rule:nonzero;stroke:none"
         transform="matrix(0.13333333,0,0,-0.13333333,0,925.2)" />
      <path
         id="path24"
         d="m 4279.67,2209.12 -125.52,-0.67 2,-384.4 -96.76,-0.5 -2,384.41 -127.27,-0.67 -0.4,77.59 366.11,1.9 -16.16,-77.66"
         style="fill:#ffffff;fill-opacity:1;fill-rule:nonzero;stroke:none"
         transform="matrix(0.13333333,0,0,-0.13333333,0,925.2)" />
      <path
         id="path25"
         d="m 4718.96,2215.77 0.66,-127.25 41.84,0.22 c 40.1,0.21 63.62,4.7 79.23,16.98 13.03,10.52 19.93,26.25 19.81,48.03 -0.15,27.9 -13.32,47.87 -39.52,55.57 -14.84,4.29 -32.29,6.82 -55.82,6.7 z m 158.07,-387.95 -45.72,73.86 c -46.59,75.6 -62.38,92.96 -78.15,106.81 -7.87,6.95 -20.96,11.21 -33.17,11.16 L 4721,1827 l -95.02,-0.5 -2.42,462 156.04,0.81 c 61.02,0.32 103.77,-7.29 132.67,-31.56 31.5,-25.99 48.27,-61.62 48.47,-102.6 0.37,-71.47 -48.17,-123.16 -113.51,-129.6 6.12,-4.32 14.01,-12.13 21.03,-21.69 14.91,-19.1 39.48,-51.24 60.59,-82.51 l 64.11,-92.93 -115.93,-0.6"
         style="fill:#ffffff;fill-opacity:1;fill-rule:nonzero;stroke:none"
         transform="matrix(0.13333333,0,0,-0.13333333,0,925.2)" />
      <path
         id="path26"
         d="m 5659.66,1868.51 c -27.77,-26.31 -72.99,-45.72 -140.12,-46.06 -84.56,-0.44 -137.87,27.18 -164.25,67.13 -16.67,25.21 -21.17,49.59 -21.42,97.54 l -1.59,305.07 97.63,0.51 1.52,-290.25 c 0.16,-31.39 2.02,-51.42 8.18,-63.59 12.32,-24.34 40.3,-38.16 77.78,-37.96 30.52,0.16 54.88,8.99 66.99,24.77 12.12,14.87 17.29,28.84 17.05,75.04 l -1.54,292.88 97.63,0.51 1.58,-301.6 c 0.37,-71.48 -9.96,-95.93 -39.44,-123.99"
         style="fill:#ffffff;fill-opacity:1;fill-rule:nonzero;stroke:none"
         transform="matrix(0.13333333,0,0,-0.13333333,0,925.2)" />
      <path
         id="path27"
         d="m 6502.83,1836.3 -21.39,258.81 c -2.79,31.37 -4.73,71.43 -5.71,89.74 -3.41,-15.71 -14.54,-55.85 -23.96,-87.28 l -80.57,-261.96 -82.81,-0.43 -78.92,256.76 c -8.85,28.72 -19.56,75.71 -24.03,96.62 0.1,-17.43 -2.29,-62.76 -4.74,-96.78 l -17.83,-257.25 -95.9,-0.51 46.41,462.26 124.65,0.65 71.84,-236.72 c 9.77,-32.22 18.68,-72.25 22.28,-89.68 1.65,16.59 11.87,60.22 21.31,90.77 l 70.24,236.61 125.53,0.64 48.61,-461.76 -95.01,-0.49"
         style="fill:#ffffff;fill-opacity:1;fill-rule:nonzero;stroke:none"
         transform="matrix(0.13333333,0,0,-0.13333333,0,925.2)" />
      <path
         id="path28"
         d="m 438.09,1483.61 0.754,-142.97 63.636,0.34 c 34.875,0.18 54.004,7.26 67.008,22.14 10.399,12.27 14.66,29.71 14.555,50.64 -0.117,21.79 -7.168,38.33 -19.434,50.47 -14.906,13.86 -36.726,19.84 -69.851,19.67 z m 182.324,-190.84 c -38.246,-21.99 -67.851,-27.37 -118.41,-27.64 l -62.766,-0.32 0.879,-169.12 -96.754,-0.51 -2.418,462 133.371,0.71 c 88.047,0.46 113.372,-7.25 141.344,-21.06 46.32,-23.28 73.574,-67.6 73.848,-119.9 0.301,-58.41 -30.852,-103.05 -69.094,-124.16"
         style="fill:#ffffff;fill-opacity:1;fill-rule:nonzero;stroke:none"
         transform="matrix(0.13333333,0,0,-0.13333333,0,925.2)" />
      <path
         id="path29"
         d="m 1299.51,1117.6 c -33.91,-17.59 -76.57,-28.29 -126.26,-28.55 -58.4,-0.29 -116.87,13.34 -171.07,40.1 l 34.48,74.26 c 48.07,-23.29 89.99,-36.14 141.41,-35.87 27.03,0.13 46.18,4.61 62.71,12.53 20,9.69 31.25,25.43 31.14,46.36 -0.15,29.64 -22.05,48.71 -73.55,61.52 l -61.97,15.36 c -46.27,11.1 -78.63,32.72 -97.09,61.4 -13.19,20.83 -19.4,42.6 -19.53,67.88 -0.43,82.82 73.35,142.48 179.71,143.03 61.01,0.33 129.1,-17.62 171.1,-46.16 l -44.98,-67.36 c -41.97,23.31 -83.88,35.29 -123.1,35.09 -46.2,-0.25 -77.49,-20.45 -77.31,-52.71 0.14,-26.14 15.9,-40.9 63.03,-51.97 l 61.98,-14.5 c 38.4,-9.38 73.35,-25.77 95.26,-47.45 21.91,-21.69 34.27,-51.26 34.44,-85.25 0.29,-54.06 -29.1,-101.29 -80.4,-127.71"
         style="fill:#ffffff;fill-opacity:1;fill-rule:nonzero;stroke:none"
         transform="matrix(0.13333333,0,0,-0.13333333,0,925.2)" />
      <path
         id="path30"
         d="m 1932.26,1292.65 0.99,-189.17 -100.25,-0.52 -0.98,189.17 -162.7,272.01 115.94,0.59 72.16,-130.37 c 9.69,-18.27 21.13,-40 28.19,-55.65 6.02,15.71 13.77,35.81 25.85,57.66 l 71.68,129.4 113.32,0.59 -164.2,-273.71"
         style="fill:#ffffff;fill-opacity:1;fill-rule:nonzero;stroke:none"
         transform="matrix(0.13333333,0,0,-0.13333333,0,925.2)" />
      <path
         id="path31"
         d="m 2586.18,1099.05 c -64.5,-0.33 -117.76,15.96 -158.06,54.08 -45.56,43.36 -70.28,102.52 -70.66,174.87 -0.31,59.28 12.52,107.29 37.59,147.5 39.76,63.87 111.05,102.58 191.24,103 48.82,0.27 101.2,-14.29 130.08,-35.93 l -45,-62.99 c -26.25,16.42 -54.18,24.99 -82.95,24.85 -40.09,-0.21 -76.6,-20.45 -97.37,-50.2 -18.17,-25.38 -25.84,-61.17 -25.57,-111.73 0.35,-65.37 7.5,-100.21 31.18,-127.97 23.69,-27.79 55.15,-42.43 96.98,-42.22 33.13,0.18 60.11,9.03 89.64,28.36 l 45.64,-57.27 c -37.34,-28.98 -84.34,-44.05 -142.74,-44.35"
         style="fill:#ffffff;fill-opacity:1;fill-rule:nonzero;stroke:none"
         transform="matrix(0.13333333,0,0,-0.13333333,0,925.2)" />
      <path
         id="path32"
         d="m 3313.99,1110.69 -1.07,205.73 -158.66,-0.83 1.08,-205.73 -96.76,-0.5 -2.41,462.01 96.75,0.49 0.94,-178.69 158.65,0.84 -0.93,178.69 97.63,0.51 2.41,-462 -97.63,-0.52"
         style="fill:#ffffff;fill-opacity:1;fill-rule:nonzero;stroke:none"
         transform="matrix(0.13333333,0,0,-0.13333333,0,925.2)" />
      <path
         id="path33"
         d="m 4090.84,1244.64 c 8.58,26.19 11.92,55.85 11.68,99.44 -0.25,49.68 -5.68,85.41 -18.02,112.37 -17.63,38.26 -49.1,55.53 -95.31,55.29 -40.09,-0.21 -72.26,-18.7 -88.64,-51.02 -13.82,-27.1 -19.72,-64.62 -19.46,-115.18 0.3,-57.53 9.23,-99.32 25.07,-127.14 16.72,-28.69 47.3,-41.6 89.14,-41.38 47.95,0.24 80.11,19.6 95.54,67.62 z m -249.78,-80.63 c -44.68,44.22 -66.79,104.27 -67.18,179.23 -0.78,149.94 81.56,239.29 217.55,239.98 73.22,0.39 128.28,-23.73 167.74,-68.85 34.2,-39.07 52.79,-93.87 53.17,-166.22 0.38,-73.22 -15.89,-128.24 -48.8,-169.38 -37.25,-46.41 -89.42,-71.1 -165.26,-71.48 -67.99,-0.36 -118.66,18.56 -157.22,56.72"
         style="fill:#ffffff;fill-opacity:1;fill-rule:nonzero;stroke:none"
         transform="matrix(0.13333333,0,0,-0.13333333,0,925.2)" />
      <path
         id="path34"
         d="m 4846.02,1503.13 -125.52,-0.66 1.99,-384.43 -96.75,-0.49 -2,384.42 -127.27,-0.66 -0.4,77.57 366.11,1.91 -16.16,-77.66"
         style="fill:#ffffff;fill-opacity:1;fill-rule:nonzero;stroke:none"
         transform="matrix(0.13333333,0,0,-0.13333333,0,925.2)" />
      <path
         id="path35"
         d="m 5192.29,1120.49 -2.39,462.02 291.15,1.51 -13.54,-75.91 -181.33,-0.95 0.56,-106.34 151.68,0.78 0.4,-76.7 -150.81,-0.77 0.63,-122.92 200.51,1.03 0.41,-80.19 -297.27,-1.56"
         style="fill:#ffffff;fill-opacity:1;fill-rule:nonzero;stroke:none"
         transform="matrix(0.13333333,0,0,-0.13333333,0,925.2)" />
      <path
         id="path36"
         d="m 5955.62,1513.28 0.66,-127.27 41.85,0.22 c 40.09,0.21 63.62,4.7 79.24,16.98 13.02,10.52 19.92,26.25 19.8,48.05 -0.14,27.9 -13.33,47.87 -39.52,55.58 -14.85,4.29 -32.3,6.81 -55.83,6.68 z m 158.07,-387.97 -45.72,73.87 c -46.59,75.59 -62.36,92.95 -78.15,106.8 -7.87,6.95 -20.98,11.21 -33.19,11.16 l 1.01,-192.65 -95.02,-0.5 -2.4,462.01 156.05,0.82 c 61.02,0.32 103.76,-7.3 132.66,-31.57 31.52,-25.99 48.27,-61.62 48.48,-102.59 0.37,-71.49 -48.16,-123.18 -113.51,-129.62 6.11,-4.33 14.01,-12.13 21.03,-21.69 14.91,-19.1 39.49,-51.24 60.57,-82.51 l 64.13,-92.93 -115.94,-0.6"
         style="fill:#ffffff;fill-opacity:1;fill-rule:nonzero;stroke:none"
         transform="matrix(0.13333333,0,0,-0.13333333,0,925.2)" />
      <path
         id="path37"
         d="m 6729.68,1502.5 c -5.1,-26.18 -47.97,-161.52 -55.69,-189.47 l 111.59,0.59 c -8.87,29.59 -51.41,162.75 -55.9,188.88 z m 118.75,-373.35 -40.68,110.5 -157.78,-0.83 -38.65,-110.91 -100.25,-0.53 169.32,464.66 104.61,0.53 167.17,-462.89 -103.74,-0.53"
         style="fill:#ffffff;fill-opacity:1;fill-rule:nonzero;stroke:none"
         transform="matrix(0.13333333,0,0,-0.13333333,0,925.2)" />
      <path
         id="path38"
         d="m 7373.75,1519.82 0.74,-142.97 63.64,0.32 c 34.87,0.19 54.01,7.26 67,22.16 10.39,12.25 14.66,29.71 14.56,50.64 -0.12,21.79 -7.18,38.33 -19.45,50.46 -14.88,13.85 -36.7,19.85 -69.82,19.68 z m 182.31,-190.84 c -38.24,-21.99 -67.86,-27.37 -118.41,-27.64 l -62.78,-0.32 0.89,-169.12 -96.75,-0.52 -2.4,462.02 133.36,0.69 c 88.06,0.47 113.36,-7.25 141.33,-21.05 46.34,-23.29 73.59,-67.62 73.86,-119.92 0.3,-58.4 -30.84,-103.03 -69.1,-124.14"
         style="fill:#ffffff;fill-opacity:1;fill-rule:nonzero;stroke:none"
         transform="matrix(0.13333333,0,0,-0.13333333,0,925.2)" />
      <path
         id="path39"
         d="m 7979.91,1135.06 -2.39,462.01 99.37,0.5 2.4,-462.01 -99.38,-0.5"
         style="fill:#ffffff;fill-opacity:1;fill-rule:nonzero;stroke:none"
         transform="matrix(0.13333333,0,0,-0.13333333,0,925.2)" />
      <path
         id="path40"
         d="m 8475.04,1137.63 -2.4,462.02 99.36,0.5 2.4,-462 -99.36,-0.52"
         style="fill:#ffffff;fill-opacity:1;fill-rule:nonzero;stroke:none"
         transform="matrix(0.13333333,0,0,-0.13333333,0,925.2)" />
      <path
         id="path41"
         d="m 4896.06,3200.57 -91.59,-113.75 h -73.34 l 67.82,113.75 h 97.11"
         style="fill:#ffffff;fill-opacity:1;fill-rule:nonzero;stroke:none"
         transform="matrix(0.13333333,0,0,-0.13333333,0,925.2)" />
      <path
         id="path42"
         d="m 4896.06,3200.57 -91.59,-113.75 h -73.34 l 67.82,113.75 z"
         style="fill:none;stroke:#231f20;stroke-width:10;stroke-linecap:butt;stroke-linejoin:miter;stroke-miterlimit:10;stroke-dasharray:none;stroke-opacity:1"
         transform="matrix(0.13333333,0,0,-0.13333333,0,925.2)" />
    </g>
  </g>
</svg>
